<?xml version="1.0" encoding="UTF-8" standalone="no" ?>
<!DOCTYPE svg PUBLIC "-//W3C//DTD SVG 1.1//EN" "http://www.w3.org/Graphics/SVG/1.1/DTD/svg11.dtd">
<svg xmlns="http://www.w3.org/2000/svg" xmlns:xlink="http://www.w3.org/1999/xlink" version="1.1" width="1280" height="219" viewBox="60 -72.62 1280 219" xml:space="preserve">
<defs>
</defs>
<rect x="0" y="0" width="100%" height="100%" fill="transparent"></rect>
<g transform="matrix(1 0 0 1 640 109.5)" id="27b1a6a2-1347-4876-878b-bc48781a5041"  >
<rect style="stroke: none; stroke-width: 1; stroke-dasharray: none; stroke-linecap: butt; stroke-dashoffset: 0; stroke-linejoin: miter; stroke-miterlimit: 4; fill: rgb(255,255,255); fill-rule: nonzero; opacity: 1; visibility: hidden;" vector-effect="non-scaling-stroke"  x="-640" y="-109.5" rx="0" ry="0" width="1280" height="219" />
</g>
<g transform="matrix(Infinity NaN NaN Infinity 0 0)" id="ad4bd916-2d94-495f-989f-83dbe33040a9"  >
</g>
<g transform="matrix(4.97 0 0 4.97 698.89 40.4)"  >
<g style="" vector-effect="non-scaling-stroke"   >
		<g transform="matrix(1.33 0 0 1.33 70.5 -8.23)"  >
<path style="stroke: none; stroke-width: 1; stroke-dasharray: none; stroke-linecap: butt; stroke-dashoffset: 0; stroke-linejoin: miter; stroke-miterlimit: 4; fill: rgb(66,43,41); fill-rule: nonzero; opacity: 1;" vector-effect="non-scaling-stroke"  transform=" translate(-24.82, 8.73)" d="M 53.765625 -12.328125 C 54.066406 -12.328125 54.320312 -12.21875 54.53125 -12 C 54.75 -11.789062 54.859375 -11.535156 54.859375 -11.234375 C 54.859375 -10.847656 54.695312 -10.546875 54.375 -10.328125 C 50.75 -7.835938 47.640625 -5.832031 45.046875 -4.3125 C 42.453125 -2.789062 40.242188 -1.6875 38.421875 -1 C 36.609375 -0.3125 35.039062 0.03125 33.71875 0.03125 C 32.59375 0.03125 31.6875 -0.234375 31 -0.765625 C 30.320312 -1.304688 29.984375 -2.03125 29.984375 -2.9375 C 29.984375 -3.40625 30.007812 -3.875 30.0625 -4.34375 C 30.113281 -4.820312 30.171875 -5.273438 30.234375 -5.703125 C 30.273438 -6.085938 30.316406 -6.441406 30.359375 -6.765625 C 30.398438 -7.085938 30.421875 -7.351562 30.421875 -7.5625 C 30.421875 -7.738281 30.328125 -7.828125 30.140625 -7.828125 C 29.859375 -7.828125 29.4375 -7.703125 28.875 -7.453125 C 28.320312 -7.203125 27.554688 -6.796875 26.578125 -6.234375 C 25.597656 -5.679688 24.316406 -4.929688 22.734375 -3.984375 C 21.441406 -3.191406 20.398438 -2.578125 19.609375 -2.140625 C 18.816406 -1.703125 18.195312 -1.394531 17.75 -1.21875 C 17.3125 -1.050781 16.929688 -0.96875 16.609375 -0.96875 C 16.222656 -0.96875 15.910156 -1.097656 15.671875 -1.359375 C 15.441406 -1.628906 15.328125 -1.984375 15.328125 -2.421875 C 15.328125 -2.765625 15.421875 -3.171875 15.609375 -3.640625 C 15.804688 -4.109375 16.140625 -4.738281 16.609375 -5.53125 C 17.085938 -6.332031 17.753906 -7.382812 18.609375 -8.6875 C 20.085938 -10.882812 21.128906 -12.546875 21.734375 -13.671875 C 22.335938 -14.796875 22.640625 -15.582031 22.640625 -16.03125 C 22.640625 -16.289062 22.46875 -16.421875 22.125 -16.421875 C 21.5 -16.421875 20.722656 -16.203125 19.796875 -15.765625 C 18.878906 -15.335938 17.859375 -14.75 16.734375 -14 C 15.617188 -13.25 14.441406 -12.398438 13.203125 -11.453125 C 11.972656 -10.515625 10.71875 -9.53125 9.4375 -8.5 C 8.164062 -7.46875 6.921875 -6.457031 5.703125 -5.46875 C 4.046875 -4.113281 2.664062 -3.003906 1.5625 -2.140625 C 0.457031 -1.273438 -0.429688 -0.601562 -1.109375 -0.125 C -1.785156 0.34375 -2.332031 0.664062 -2.75 0.84375 C -3.164062 1.03125 -3.515625 1.113281 -3.796875 1.09375 C -4.742188 0.988281 -5.21875 0.429688 -5.21875 -0.578125 C -5.238281 -0.984375 -5.007812 -1.625 -4.53125 -2.5 C -4.0625 -3.382812 -3.421875 -4.398438 -2.609375 -5.546875 C -1.796875 -6.703125 -0.878906 -7.910156 0.140625 -9.171875 C 1.160156 -10.441406 2.210938 -11.664062 3.296875 -12.84375 C 4.378906 -14.03125 5.425781 -15.082031 6.4375 -16 C 6.613281 -16.175781 6.851562 -16.265625 7.15625 -16.265625 C 7.46875 -16.265625 7.726562 -16.160156 7.9375 -15.953125 C 8.144531 -15.742188 8.25 -15.484375 8.25 -15.171875 C 8.25 -14.847656 8.128906 -14.578125 7.890625 -14.359375 C 6.679688 -13.242188 5.519531 -12.066406 4.40625 -10.828125 C 3.289062 -9.597656 2.265625 -8.382812 1.328125 -7.1875 C 0.398438 -6 -0.394531 -4.921875 -1.0625 -3.953125 C -1.40625 -3.441406 -1.53125 -3.097656 -1.4375 -2.921875 C -1.351562 -2.753906 -1.015625 -2.894531 -0.421875 -3.34375 C 0.203125 -3.820312 0.910156 -4.378906 1.703125 -5.015625 C 2.492188 -5.660156 3.363281 -6.367188 4.3125 -7.140625 C 6.957031 -9.296875 9.238281 -11.109375 11.15625 -12.578125 C 13.070312 -14.046875 14.710938 -15.210938 16.078125 -16.078125 C 17.441406 -16.953125 18.617188 -17.582031 19.609375 -17.96875 C 20.597656 -18.351562 21.488281 -18.546875 22.28125 -18.546875 C 22.988281 -18.546875 23.585938 -18.335938 24.078125 -17.921875 C 24.578125 -17.503906 24.828125 -16.925781 24.828125 -16.1875 C 24.828125 -15.65625 24.695312 -15.035156 24.4375 -14.328125 C 24.175781 -13.617188 23.722656 -12.722656 23.078125 -11.640625 C 22.441406 -10.554688 21.5625 -9.164062 20.4375 -7.46875 C 20.125 -7 19.84375 -6.570312 19.59375 -6.1875 C 19.34375 -5.800781 19.113281 -5.4375 18.90625 -5.09375 C 18.75 -4.851562 18.734375 -4.664062 18.859375 -4.53125 C 18.992188 -4.40625 19.191406 -4.410156 19.453125 -4.546875 L 21.609375 -5.859375 C 22.640625 -6.484375 23.710938 -7.109375 24.828125 -7.734375 C 25.941406 -8.367188 26.988281 -8.898438 27.96875 -9.328125 C 28.957031 -9.765625 29.785156 -9.984375 30.453125 -9.984375 C 31.140625 -9.984375 31.671875 -9.78125 32.046875 -9.375 C 32.421875 -8.96875 32.609375 -8.40625 32.609375 -7.6875 C 32.609375 -7.332031 32.585938 -6.960938 32.546875 -6.578125 C 32.503906 -6.203125 32.453125 -5.820312 32.390625 -5.4375 C 32.347656 -5.007812 32.300781 -4.601562 32.25 -4.21875 C 32.195312 -3.832031 32.171875 -3.5 32.171875 -3.21875 C 32.171875 -2.832031 32.296875 -2.554688 32.546875 -2.390625 C 32.804688 -2.234375 33.195312 -2.15625 33.71875 -2.15625 C 34.851562 -2.15625 36.269531 -2.492188 37.96875 -3.171875 C 39.675781 -3.847656 41.765625 -4.921875 44.234375 -6.390625 C 46.703125 -7.859375 49.664062 -9.773438 53.125 -12.140625 C 53.34375 -12.265625 53.554688 -12.328125 53.765625 -12.328125 Z M 53.765625 -12.328125" stroke-linecap="round" />
</g>
		<g transform="matrix(1.33 0 0 1.33 129.69 -3.68)"  >
<path style="stroke: none; stroke-width: 1; stroke-dasharray: none; stroke-linecap: butt; stroke-dashoffset: 0; stroke-linejoin: miter; stroke-miterlimit: 4; fill: rgb(66,43,41); fill-rule: nonzero; opacity: 1;" vector-effect="non-scaling-stroke"  transform=" translate(-18.55, 5.31)" d="M 39.25 -12.328125 C 39.550781 -12.328125 39.804688 -12.21875 40.015625 -12 C 40.234375 -11.789062 40.34375 -11.535156 40.34375 -11.234375 C 40.34375 -10.679688 40.085938 -10.335938 39.578125 -10.203125 C 37.492188 -9.515625 35.265625 -8.816406 32.890625 -8.109375 C 30.515625 -7.398438 28.128906 -6.691406 25.734375 -5.984375 C 23.429688 -5.296875 21.203125 -4.628906 19.046875 -3.984375 C 16.890625 -3.347656 14.910156 -2.738281 13.109375 -2.15625 C 13.015625 -2.09375 12.957031 -2.039062 12.9375 -2 C 12.226562 -1.007812 11.347656 0.00390625 10.296875 1.046875 C 9.242188 2.085938 8.097656 3.046875 6.859375 3.921875 C 5.628906 4.804688 4.367188 5.519531 3.078125 6.0625 C 1.796875 6.613281 0.578125 6.890625 -0.578125 6.890625 C -1.410156 6.890625 -2.0625 6.703125 -2.53125 6.328125 C -3.007812 5.953125 -3.25 5.453125 -3.25 4.828125 C -3.25 4.054688 -2.628906 3.191406 -1.390625 2.234375 C -0.160156 1.273438 1.566406 0.269531 3.796875 -0.78125 C 6.023438 -1.84375 8.613281 -2.890625 11.5625 -3.921875 L 11.75 -4.03125 C 11.945312 -4.320312 12.117188 -4.609375 12.265625 -4.890625 C 12.421875 -5.171875 12.472656 -5.363281 12.421875 -5.46875 C 12.335938 -5.601562 12.070312 -5.648438 11.625 -5.609375 C 11.175781 -5.578125 10.628906 -5.503906 9.984375 -5.390625 C 9.335938 -5.273438 8.679688 -5.160156 8.015625 -5.046875 C 7.222656 -4.898438 6.414062 -4.769531 5.59375 -4.65625 C 4.78125 -4.550781 4.03125 -4.5 3.34375 -4.5 C 2.1875 -4.5 1.296875 -4.71875 0.671875 -5.15625 C 0.046875 -5.601562 -0.265625 -6.242188 -0.265625 -7.078125 C -0.265625 -7.898438 0.015625 -8.78125 0.578125 -9.71875 C 1.140625 -10.664062 1.894531 -11.597656 2.84375 -12.515625 C 3.800781 -13.441406 4.851562 -14.28125 6 -15.03125 C 7.15625 -15.78125 8.332031 -16.378906 9.53125 -16.828125 C 10.726562 -17.285156 11.84375 -17.515625 12.875 -17.515625 C 13.71875 -17.515625 14.390625 -17.296875 14.890625 -16.859375 C 15.398438 -16.421875 15.65625 -15.84375 15.65625 -15.125 C 15.65625 -14.894531 15.640625 -14.679688 15.609375 -14.484375 C 15.398438 -13.671875 15 -12.863281 14.40625 -12.0625 C 13.820312 -11.269531 13.1875 -10.671875 12.5 -10.265625 C 12.300781 -10.160156 12.113281 -10.109375 11.9375 -10.109375 C 11.625 -10.109375 11.363281 -10.210938 11.15625 -10.421875 C 10.945312 -10.640625 10.84375 -10.898438 10.84375 -11.203125 C 10.84375 -11.628906 11.023438 -11.941406 11.390625 -12.140625 C 11.734375 -12.347656 12.066406 -12.625 12.390625 -12.96875 C 12.710938 -13.3125 12.972656 -13.664062 13.171875 -14.03125 C 13.378906 -14.40625 13.484375 -14.726562 13.484375 -15 C 13.484375 -15.113281 13.421875 -15.195312 13.296875 -15.25 C 13.171875 -15.300781 13.03125 -15.328125 12.875 -15.328125 C 12.101562 -15.328125 11.226562 -15.140625 10.25 -14.765625 C 9.28125 -14.390625 8.3125 -13.894531 7.34375 -13.28125 C 6.375 -12.664062 5.476562 -12 4.65625 -11.28125 C 3.84375 -10.5625 3.179688 -9.847656 2.671875 -9.140625 C 2.160156 -8.429688 1.90625 -7.8125 1.90625 -7.28125 C 1.90625 -7.0625 2.007812 -6.90625 2.21875 -6.8125 C 2.4375 -6.71875 2.8125 -6.671875 3.34375 -6.671875 C 3.945312 -6.671875 4.617188 -6.722656 5.359375 -6.828125 C 6.097656 -6.929688 6.863281 -7.050781 7.65625 -7.1875 C 8.382812 -7.3125 9.101562 -7.425781 9.8125 -7.53125 C 10.53125 -7.632812 11.175781 -7.6875 11.75 -7.6875 C 12.675781 -7.6875 13.382812 -7.5 13.875 -7.125 C 14.375 -6.75 14.597656 -6.21875 14.546875 -5.53125 C 14.523438 -5.445312 14.507812 -5.34375 14.5 -5.21875 C 14.488281 -5.101562 14.460938 -4.992188 14.421875 -4.890625 C 16.015625 -5.390625 17.722656 -5.910156 19.546875 -6.453125 C 21.367188 -7.003906 23.234375 -7.546875 25.140625 -8.078125 C 27.523438 -8.785156 29.894531 -9.488281 32.25 -10.1875 C 34.613281 -10.882812 36.828125 -11.578125 38.890625 -12.265625 C 39.003906 -12.304688 39.125 -12.328125 39.25 -12.328125 Z M -0.15625 4.703125 C 0.59375 4.703125 1.484375 4.476562 2.515625 4.03125 C 3.546875 3.59375 4.632812 2.960938 5.78125 2.140625 C 6.925781 1.316406 8.035156 0.367188 9.109375 -0.703125 C 7.804688 -0.171875 6.546875 0.382812 5.328125 0.96875 C 4.117188 1.5625 3.03125 2.117188 2.0625 2.640625 C 1.09375 3.171875 0.332031 3.625 -0.21875 4 C -0.476562 4.164062 -0.609375 4.332031 -0.609375 4.5 C -0.609375 4.632812 -0.457031 4.703125 -0.15625 4.703125 Z M -0.15625 4.703125" stroke-linecap="round" />
</g>
		<g transform="matrix(1.33 0 0 1.33 -56.23 2.1)"  >
<path style="stroke: none; stroke-width: 1; stroke-dasharray: none; stroke-linecap: butt; stroke-dashoffset: 0; stroke-linejoin: miter; stroke-miterlimit: 4; fill: rgb(66,43,41); fill-rule: nonzero; opacity: 1;" vector-effect="non-scaling-stroke"  transform=" translate(-84.44, -134.16)" d="M 160.777344 119.832031 C 154.414062 127.660156 143.414062 128.367188 134.078125 128.765625 C 121.402344 129.304688 108.71875 129.566406 96.027344 129.542969 C 83.335938 129.523438 70.648438 129.238281 57.96875 128.683594 C 47.828125 128.234375 37.429688 127.433594 27.453125 129.855469 C 22.511719 131.058594 17.746094 133.125 13.761719 136.324219 C 10.199219 139.1875 6.738281 143.484375 7.71875 148.304688 C 7.773438 148.484375 7.890625 148.574219 8.078125 148.574219 C 8.265625 148.574219 8.386719 148.484375 8.441406 148.304688 C 10.578125 137.546875 21.265625 132.523438 31.183594 130.847656 C 41.730469 129.070312 52.628906 130.191406 63.253906 130.535156 C 87.667969 131.320312 112.226562 131.285156 136.632812 129.835938 C 145.605469 129.296875 155.492188 127.875 161.277344 120.230469 C 161.496094 119.941406 161 119.546875 160.769531 119.839844 Z M 160.777344 119.832031" stroke-linecap="round" />
</g>
</g>
</g>
</svg>