<?xml version="1.0" encoding="UTF-8" standalone="no" ?>
<!DOCTYPE svg PUBLIC "-//W3C//DTD SVG 1.1//EN" "http://www.w3.org/Graphics/SVG/1.1/DTD/svg11.dtd">
<svg xmlns="http://www.w3.org/2000/svg" xmlns:xlink="http://www.w3.org/1999/xlink" version="1.1" width="840" height="400" viewBox="0 0 840 400" xml:space="preserve">
<defs>
</defs>
<g transform="matrix(0 0 0 0 0 0)" id="148a4fdb-ad19-466f-8be7-0aaf7eb7f068"  >
</g>
<g transform="matrix(1 0 0 1 420 200)" id="9a054f87-59d8-429c-a374-7bf48b05019a"  >
<rect style="stroke: none; stroke-width: 1; stroke-dasharray: none; stroke-linecap: butt; stroke-dashoffset: 0; stroke-linejoin: miter; stroke-miterlimit: 4; fill: rgb(255,255,255); fill-rule: nonzero; opacity: 1; visibility: hidden;" vector-effect="non-scaling-stroke"  x="-420" y="-200" rx="0" ry="0" width="840" height="400" />
</g>
<g transform="matrix(4.85 0 0 4.85 420.13 200.06)"  >
<g style="" vector-effect="non-scaling-stroke"   >
		<g transform="matrix(1.33 0 0 1.33 26.57 -8.8)" clip-path="url(#CLIPPATH_9)"  >
<clipPath id="CLIPPATH_9" >
	<path transform="matrix(1 0 0 1 0.05 0.27) translate(-216.15, -111.62)" clip-path="url(#undefined)" d="M 256.878906 126.535156 L 174.050781 122.082031 L 175.414062 96.710938 L 258.242188 101.164062 Z M 256.878906 126.535156" stroke-linecap="round" />
</clipPath>
<path style="stroke: none; stroke-width: 1; stroke-dasharray: none; stroke-linecap: butt; stroke-dashoffset: 0; stroke-linejoin: miter; stroke-miterlimit: 4; fill: rgb(66,43,41); fill-rule: nonzero; opacity: 1;" vector-effect="non-scaling-stroke"  transform=" translate(-216.1, -111.35)" d="M 249.621094 107.78125 C 248.683594 107.386719 247.8125 107 246.925781 106.652344 C 246.035156 106.304688 245.347656 105.6875 244.6875 105.039062 C 244.21875 104.578125 244.085938 103.996094 244.351562 103.375 C 244.523438 102.964844 244.707031 102.542969 244.9375 102.164062 C 245.792969 100.785156 247.113281 100.390625 248.636719 100.898438 C 250.621094 101.558594 251.199219 102.378906 251.414062 104.871094 C 251.460938 105.398438 251.367188 105.933594 251.335938 106.550781 C 251.6875 106.523438 252.046875 106.539062 252.398438 106.46875 C 253.761719 106.214844 255.0625 105.832031 256.183594 104.941406 C 256.574219 104.632812 257.109375 104.488281 257.59375 104.332031 C 257.914062 104.230469 258 104.359375 257.875 104.679688 C 257.5625 105.496094 256.984375 106.195312 256.234375 106.652344 C 254.628906 107.652344 252.929688 108.3125 250.988281 108.117188 C 250.878906 108.105469 250.695312 108.210938 250.648438 108.3125 C 249.5 110.683594 247.839844 112.632812 245.933594 114.445312 C 243.757812 116.511719 241.191406 118.125 238.382812 119.183594 C 235.945312 120.117188 233.476562 121.121094 230.890625 121.53125 C 226.914062 122.164062 222.945312 122.007812 219 121.121094 C 214.890625 120.207031 210.878906 118.964844 206.855469 117.769531 C 204.1875 116.976562 201.515625 116.164062 198.746094 115.851562 C 196.617188 115.613281 194.460938 115.53125 192.316406 115.484375 C 190.609375 115.445312 188.894531 115.496094 187.1875 115.632812 C 185.136719 115.800781 183.226562 116.546875 181.304688 117.210938 C 178.808594 118.070312 176.738281 119.527344 175.167969 121.671875 C 175 121.898438 174.824219 122.125 174.515625 121.976562 C 174.207031 121.828125 174.257812 121.519531 174.335938 121.269531 C 174.546875 120.523438 174.957031 119.847656 175.519531 119.308594 C 177.105469 117.808594 178.828125 116.527344 180.925781 115.820312 C 182.976562 115.125 184.992188 114.328125 187.167969 114.128906 C 188.578125 114.003906 190 113.929688 191.417969 113.929688 C 193.507812 113.941406 195.601562 113.960938 197.691406 114.113281 C 200.773438 114.335938 203.738281 115.203125 206.695312 116.039062 C 210 116.964844 213.28125 118.007812 216.597656 118.898438 C 219.320312 119.628906 222.078125 120.253906 224.929688 120.316406 C 226.9375 120.355469 228.992188 120.523438 230.929688 120.019531 C 234.914062 118.980469 238.976562 118.0625 242.46875 115.71875 C 245.234375 113.863281 247.640625 111.617188 249.230469 108.625 C 249.378906 108.359375 249.484375 108.070312 249.621094 107.78125 Z M 250.082031 106.238281 C 250.355469 105.332031 250.226562 104.511719 250.015625 103.6875 C 249.726562 102.617188 248.769531 101.917969 247.601562 101.90625 C 246.582031 101.898438 245.957031 102.429688 245.613281 103.609375 C 245.605469 103.617188 245.59375 103.636719 245.601562 103.648438 C 245.652344 103.816406 245.652344 104.046875 245.769531 104.148438 C 246.984375 105.261719 248.488281 105.785156 250.082031 106.238281 Z M 250.082031 106.238281" stroke-linecap="round" />
</g>
		<g transform="matrix(1.33 0 0 1.33 -55.49 -10.75)"  >
<path style="stroke: none; stroke-width: 1; stroke-dasharray: none; stroke-linecap: butt; stroke-dashoffset: 0; stroke-linejoin: miter; stroke-miterlimit: 4; fill: rgb(66,43,41); fill-rule: nonzero; opacity: 1;" vector-effect="non-scaling-stroke"  transform=" translate(-18.57, 44.54)" d="M 14.8125 -39.703125 C 14.71875 -38.617188 14.679688 -37.539062 14.703125 -36.46875 C 14.722656 -35.40625 14.722656 -34.332031 14.703125 -33.25 C 15.003906 -33.8125 15.332031 -34.550781 15.6875 -35.46875 C 16.039062 -36.382812 16.394531 -37.398438 16.75 -38.515625 C 17.101562 -39.628906 17.441406 -40.753906 17.765625 -41.890625 C 18.097656 -43.035156 18.398438 -44.109375 18.671875 -45.109375 C 18.941406 -46.109375 19.171875 -46.953125 19.359375 -47.640625 C 19.546875 -48.335938 19.660156 -48.78125 19.703125 -48.96875 C 20.078125 -50.28125 20.484375 -51.65625 20.921875 -53.09375 C 21.359375 -54.53125 21.816406 -55.941406 22.296875 -57.328125 C 22.773438 -58.710938 23.28125 -60 23.8125 -61.1875 C 24.34375 -62.375 24.867188 -63.378906 25.390625 -64.203125 C 25.671875 -64.648438 26.0625 -64.859375 26.5625 -64.828125 C 27.070312 -64.804688 27.554688 -64.65625 28.015625 -64.375 C 28.472656 -64.09375 28.75 -63.785156 28.84375 -63.453125 C 29.351562 -61.972656 29.59375 -60.492188 29.5625 -59.015625 C 29.53125 -57.535156 29.378906 -56.046875 29.109375 -54.546875 C 28.835938 -53.054688 28.59375 -51.5625 28.375 -50.0625 C 28.050781 -47.738281 27.78125 -45.394531 27.5625 -43.03125 C 27.351562 -40.664062 27.210938 -38.296875 27.140625 -35.921875 C 27.117188 -35.335938 27.109375 -34.742188 27.109375 -34.140625 C 27.109375 -33.546875 27.132812 -32.941406 27.1875 -32.328125 C 27.207031 -32.140625 27.234375 -31.828125 27.265625 -31.390625 C 27.304688 -30.960938 27.351562 -30.503906 27.40625 -30.015625 C 27.46875 -29.535156 27.554688 -29.101562 27.671875 -28.71875 C 27.796875 -28.332031 27.9375 -28.078125 28.09375 -27.953125 C 28.539062 -27.367188 29.050781 -27.132812 29.625 -27.25 C 30.207031 -27.363281 30.648438 -27.578125 30.953125 -27.890625 C 31.515625 -28.566406 31.960938 -29.234375 32.296875 -29.890625 C 32.617188 -30.429688 32.914062 -30.976562 33.1875 -31.53125 C 33.457031 -32.082031 33.722656 -32.628906 33.984375 -33.171875 C 34.992188 -35.316406 35.863281 -37.503906 36.59375 -39.734375 C 37.320312 -41.960938 37.945312 -44.21875 38.46875 -46.5 C 38.488281 -46.59375 38.5625 -46.613281 38.6875 -46.5625 C 38.820312 -46.519531 38.875 -46.460938 38.84375 -46.390625 C 38.78125 -45.921875 38.644531 -45.15625 38.4375 -44.09375 C 38.238281 -43.039062 37.976562 -41.820312 37.65625 -40.4375 C 37.34375 -39.050781 36.960938 -37.59375 36.515625 -36.0625 C 36.078125 -34.539062 35.582031 -33.054688 35.03125 -31.609375 C 34.476562 -30.160156 33.863281 -28.863281 33.1875 -27.71875 C 32.519531 -26.582031 31.800781 -25.695312 31.03125 -25.0625 C 30.269531 -24.425781 29.445312 -24.160156 28.5625 -24.265625 C 27.6875 -24.378906 26.769531 -24.960938 25.8125 -26.015625 C 24.863281 -27.046875 24.203125 -28.28125 23.828125 -29.71875 C 23.453125 -31.15625 23.253906 -32.671875 23.234375 -34.265625 C 23.210938 -35.867188 23.269531 -37.441406 23.40625 -38.984375 C 23.550781 -40.535156 23.671875 -41.9375 23.765625 -43.1875 C 23.929688 -44.90625 24.117188 -46.609375 24.328125 -48.296875 C 24.535156 -49.992188 24.796875 -51.6875 25.109375 -53.375 C 25.316406 -54.570312 25.519531 -55.765625 25.71875 -56.953125 C 25.914062 -58.140625 25.992188 -59.332031 25.953125 -60.53125 C 25.171875 -59.070312 24.40625 -57.382812 23.65625 -55.46875 C 22.90625 -53.550781 22.210938 -51.59375 21.578125 -49.59375 C 20.941406 -47.601562 20.378906 -45.710938 19.890625 -43.921875 C 19.460938 -42.347656 19.003906 -40.828125 18.515625 -39.359375 C 18.035156 -37.890625 17.585938 -36.367188 17.171875 -34.796875 C 17.003906 -34.160156 16.796875 -33.535156 16.546875 -32.921875 C 16.304688 -32.316406 15.96875 -31.8125 15.53125 -31.40625 C 15.09375 -31.007812 14.5 -30.773438 13.75 -30.703125 C 13.445312 -30.679688 13.160156 -30.765625 12.890625 -30.953125 C 12.617188 -31.140625 12.421875 -31.363281 12.296875 -31.625 C 11.710938 -32.75 11.335938 -33.894531 11.171875 -35.0625 C 11.003906 -36.226562 10.960938 -37.414062 11.046875 -38.625 C 11.128906 -39.832031 11.234375 -41.046875 11.359375 -42.265625 C 11.453125 -43.179688 11.535156 -44.097656 11.609375 -45.015625 C 11.691406 -45.929688 11.757812 -46.847656 11.8125 -47.765625 C 11.832031 -47.953125 11.863281 -48.234375 11.90625 -48.609375 C 11.957031 -48.992188 11.988281 -49.375 12 -49.75 C 12.007812 -50.125 11.96875 -50.40625 11.875 -50.59375 C 11.570312 -51.175781 11.285156 -51.382812 11.015625 -51.21875 C 10.742188 -51.0625 10.410156 -50.804688 10.015625 -50.453125 C 9.585938 -50.078125 9.148438 -49.488281 8.703125 -48.6875 C 8.253906 -47.882812 7.8125 -46.976562 7.375 -45.96875 C 6.945312 -44.957031 6.550781 -43.953125 6.1875 -42.953125 C 5.820312 -41.953125 5.519531 -41.066406 5.28125 -40.296875 C 5 -39.359375 4.753906 -38.351562 4.546875 -37.28125 C 4.335938 -36.207031 4.078125 -35.160156 3.765625 -34.140625 C 3.460938 -33.117188 3.03125 -32.1875 2.46875 -31.34375 C 2.1875 -30.894531 1.78125 -30.675781 1.25 -30.6875 C 0.71875 -30.695312 0.234375 -30.875 -0.203125 -31.21875 C -0.648438 -31.5625 -0.921875 -31.957031 -1.015625 -32.40625 C -1.722656 -36.113281 -1.894531 -39.835938 -1.53125 -43.578125 C -1.164062 -47.316406 -0.476562 -50.984375 0.53125 -54.578125 C 0.644531 -54.972656 0.910156 -55.195312 1.328125 -55.25 C 1.753906 -55.3125 2.210938 -55.25 2.703125 -55.0625 C 3.203125 -54.875 3.601562 -54.609375 3.90625 -54.265625 C 4.21875 -53.929688 4.300781 -53.550781 4.15625 -53.125 C 3.238281 -50.332031 2.644531 -47.53125 2.375 -44.71875 C 2.101562 -41.914062 2.039062 -39.078125 2.1875 -36.203125 C 2.300781 -36.367188 2.492188 -36.816406 2.765625 -37.546875 C 3.035156 -38.273438 3.363281 -39.179688 3.75 -40.265625 C 4.144531 -41.347656 4.582031 -42.5 5.0625 -43.71875 C 5.539062 -44.9375 6.054688 -46.132812 6.609375 -47.3125 C 7.160156 -48.488281 7.726562 -49.539062 8.3125 -50.46875 C 8.90625 -51.394531 9.507812 -52.082031 10.125 -52.53125 C 10.46875 -52.8125 10.738281 -53.019531 10.9375 -53.15625 C 11.144531 -53.300781 11.472656 -53.363281 11.921875 -53.34375 C 12.671875 -53.289062 13.273438 -53.039062 13.734375 -52.59375 C 14.191406 -52.15625 14.535156 -51.601562 14.765625 -50.9375 C 15.003906 -50.28125 15.171875 -49.597656 15.265625 -48.890625 C 15.359375 -48.191406 15.40625 -47.570312 15.40625 -47.03125 C 15.425781 -45.8125 15.351562 -44.585938 15.1875 -43.359375 C 15.03125 -42.140625 14.90625 -40.921875 14.8125 -39.703125 Z M 14.8125 -39.703125" stroke-linecap="round" />
</g>
		<g transform="matrix(1.33 0 0 1.33 -30.1 5.3)"  >
<path style="stroke: none; stroke-width: 1; stroke-dasharray: none; stroke-linecap: butt; stroke-dashoffset: 0; stroke-linejoin: miter; stroke-miterlimit: 4; fill: rgb(66,43,41); fill-rule: nonzero; opacity: 1;" vector-effect="non-scaling-stroke"  transform=" translate(-8.86, 23.99)" d="M 19.8125 -29.515625 C 18.082031 -29.054688 16.484375 -28.40625 15.015625 -27.5625 C 13.546875 -26.71875 12.175781 -25.726562 10.90625 -24.59375 C 11.800781 -23.613281 12.625 -22.597656 13.375 -21.546875 C 14.132812 -20.503906 14.753906 -19.390625 15.234375 -18.203125 C 15.710938 -17.015625 15.96875 -15.722656 16 -14.328125 C 16.03125 -13.140625 15.867188 -11.96875 15.515625 -10.8125 C 15.171875 -9.65625 14.6875 -8.5625 14.0625 -7.53125 C 13.445312 -6.5 12.738281 -5.539062 11.9375 -4.65625 C 11.363281 -4.019531 10.71875 -3.382812 10 -2.75 C 9.28125 -2.125 8.519531 -1.5625 7.71875 -1.0625 C 6.914062 -0.570312 6.070312 -0.207031 5.1875 0.03125 C 4.300781 0.28125 3.398438 0.34375 2.484375 0.21875 C 1.179688 0.0625 0.171875 -0.289062 -0.546875 -0.84375 C -1.273438 -1.40625 -1.765625 -2.097656 -2.015625 -2.921875 C -2.265625 -3.753906 -2.335938 -4.660156 -2.234375 -5.640625 C -2.128906 -6.617188 -1.90625 -7.632812 -1.5625 -8.6875 C -1.226562 -9.75 -0.820312 -10.78125 -0.34375 -11.78125 C 0.132812 -12.789062 0.617188 -13.726562 1.109375 -14.59375 C 1.609375 -15.457031 2.054688 -16.179688 2.453125 -16.765625 C 3.328125 -18.066406 4.269531 -19.394531 5.28125 -20.75 C 6.289062 -22.101562 7.390625 -23.378906 8.578125 -24.578125 C 7.703125 -25.515625 6.8125 -26.4375 5.90625 -27.34375 C 5.007812 -28.257812 4.203125 -29.1875 3.484375 -30.125 C 2.441406 -31.457031 1.601562 -32.890625 0.96875 -34.421875 C 0.332031 -35.960938 0.03125 -37.582031 0.0625 -39.28125 C 0.0820312 -40.101562 0.179688 -40.941406 0.359375 -41.796875 C 0.546875 -42.660156 0.820312 -43.484375 1.1875 -44.265625 C 1.5625 -45.046875 2.039062 -45.742188 2.625 -46.359375 C 3.207031 -46.984375 3.898438 -47.472656 4.703125 -47.828125 C 5.585938 -48.234375 6.472656 -48.359375 7.359375 -48.203125 C 8.242188 -48.054688 9.039062 -47.703125 9.75 -47.140625 C 10.46875 -46.585938 11.019531 -45.878906 11.40625 -45.015625 C 11.851562 -44.023438 12.085938 -43.03125 12.109375 -42.03125 C 12.140625 -41.039062 12.03125 -40.050781 11.78125 -39.0625 C 11.53125 -38.082031 11.207031 -37.113281 10.8125 -36.15625 C 10.425781 -35.207031 10.035156 -34.273438 9.640625 -33.359375 C 9.578125 -33.210938 9.445312 -33.144531 9.25 -33.15625 C 9.050781 -33.175781 8.878906 -33.25 8.734375 -33.375 C 8.585938 -33.5 8.535156 -33.644531 8.578125 -33.8125 C 9.046875 -35.21875 9.398438 -36.703125 9.640625 -38.265625 C 9.890625 -39.828125 9.925781 -41.351562 9.75 -42.84375 C 9.707031 -43.269531 9.617188 -43.722656 9.484375 -44.203125 C 9.347656 -44.691406 9.15625 -45.128906 8.90625 -45.515625 C 8.65625 -45.910156 8.320312 -46.1875 7.90625 -46.34375 C 7.5 -46.507812 6.988281 -46.488281 6.375 -46.28125 C 5.789062 -46.09375 5.253906 -45.726562 4.765625 -45.1875 C 4.285156 -44.644531 3.898438 -44.117188 3.609375 -43.609375 C 2.992188 -42.492188 2.613281 -41.347656 2.46875 -40.171875 C 2.332031 -39.003906 2.378906 -37.84375 2.609375 -36.6875 C 2.847656 -35.539062 3.234375 -34.425781 3.765625 -33.34375 C 4.296875 -32.269531 4.929688 -31.265625 5.671875 -30.328125 C 6.296875 -29.546875 6.960938 -28.773438 7.671875 -28.015625 C 8.390625 -27.265625 9.113281 -26.507812 9.84375 -25.75 C 11.207031 -26.96875 12.6875 -27.976562 14.28125 -28.78125 C 15.882812 -29.582031 17.613281 -30.023438 19.46875 -30.109375 C 19.570312 -30.117188 19.679688 -30.078125 19.796875 -29.984375 C 19.910156 -29.898438 19.976562 -29.8125 20 -29.71875 C 20.03125 -29.625 19.96875 -29.554688 19.8125 -29.515625 Z M 13.578125 -13.5625 C 13.710938 -14.875 13.613281 -16.09375 13.28125 -17.21875 C 12.945312 -18.351562 12.457031 -19.429688 11.8125 -20.453125 C 11.175781 -21.472656 10.453125 -22.453125 9.640625 -23.390625 C 9.429688 -23.171875 9.21875 -22.953125 9 -22.734375 C 8.789062 -22.515625 8.582031 -22.273438 8.375 -22.015625 C 6.851562 -20.265625 5.398438 -18.375 4.015625 -16.34375 C 2.640625 -14.3125 1.515625 -12.195312 0.640625 -10 C 0.453125 -9.488281 0.25 -8.929688 0.03125 -8.328125 C -0.175781 -7.734375 -0.34375 -7.117188 -0.46875 -6.484375 C -0.601562 -5.847656 -0.65625 -5.226562 -0.625 -4.625 C -0.59375 -4.019531 -0.441406 -3.460938 -0.171875 -2.953125 C 0.128906 -2.359375 0.507812 -1.941406 0.96875 -1.703125 C 1.425781 -1.460938 1.921875 -1.351562 2.453125 -1.375 C 2.984375 -1.40625 3.519531 -1.519531 4.0625 -1.71875 C 4.613281 -1.914062 5.140625 -2.15625 5.640625 -2.4375 C 6.148438 -2.71875 6.597656 -3 6.984375 -3.28125 C 8.078125 -4.09375 9.097656 -5.03125 10.046875 -6.09375 C 11.003906 -7.15625 11.796875 -8.316406 12.421875 -9.578125 C 13.054688 -10.847656 13.441406 -12.175781 13.578125 -13.5625 Z M 13.578125 -13.5625" stroke-linecap="round" />
</g>
</g>
</g>
<g transform="matrix(NaN NaN NaN NaN 0 0)"  >
<g style=""   >
</g>
</g>
<g transform="matrix(NaN NaN NaN NaN 0 0)"  >
<g style=""   >
</g>
</g>
<g transform="matrix(NaN NaN NaN NaN 0 0)"  >
<g style=""   >
</g>
</g>
<g transform="matrix(NaN NaN NaN NaN 0 0)"  >
<g style=""   >
</g>
</g>
</svg>